<mxfile host="app.diagrams.net" modified="2024-05-10T13:29:33.267Z" agent="Mozilla/5.0 (X11; Ubuntu; Linux x86_64; rv:125.0) Gecko/20100101 Firefox/125.0" etag="bKZDiFcMrf6qLOk8ytXp" version="24.3.1" type="github">
  <diagram name="Page-1" id="wlybUEzBC5uSpr5Kb3t2">
    <mxGraphModel dx="880" dy="454" grid="1" gridSize="10" guides="1" tooltips="1" connect="1" arrows="1" fold="1" page="1" pageScale="1" pageWidth="850" pageHeight="1100" math="0" shadow="0">
      <root>
        <mxCell id="0" />
        <mxCell id="1" parent="0" />
        <mxCell id="sQZkt7OxbiWoOmY9Tt8w-1" value="&lt;b&gt;Mulai&lt;/b&gt;" style="strokeWidth=2;html=1;shape=mxgraph.flowchart.start_1;whiteSpace=wrap;" vertex="1" parent="1">
          <mxGeometry x="350" y="60" width="100" height="60" as="geometry" />
        </mxCell>
        <mxCell id="sQZkt7OxbiWoOmY9Tt8w-2" value="&lt;b&gt;Inisialisasi&lt;br&gt;&lt;/b&gt;pengaturan port ATmega32" style="rounded=1;whiteSpace=wrap;html=1;absoluteArcSize=1;arcSize=14;strokeWidth=2;" vertex="1" parent="1">
          <mxGeometry x="340" y="160" width="120" height="70" as="geometry" />
        </mxCell>
        <mxCell id="sQZkt7OxbiWoOmY9Tt8w-3" value="&lt;div&gt;&lt;b&gt;Cek Kode&lt;/b&gt;&lt;/div&gt;&lt;div&gt;kode = 0?&lt;br&gt;&lt;/div&gt;" style="strokeWidth=2;html=1;shape=mxgraph.flowchart.decision;whiteSpace=wrap;" vertex="1" parent="1">
          <mxGeometry x="350" y="290" width="100" height="100" as="geometry" />
        </mxCell>
        <mxCell id="sQZkt7OxbiWoOmY9Tt8w-4" value="&lt;b&gt;Otomatis&lt;/b&gt;" style="shape=process;whiteSpace=wrap;html=1;backgroundOutline=1;" vertex="1" parent="1">
          <mxGeometry x="440" y="440" width="120" height="60" as="geometry" />
        </mxCell>
        <mxCell id="sQZkt7OxbiWoOmY9Tt8w-5" value="&lt;div&gt;&lt;b&gt;Update&lt;/b&gt;&lt;/div&gt;&lt;div&gt;kode = 1&lt;br&gt;&lt;/div&gt;" style="rounded=1;whiteSpace=wrap;html=1;absoluteArcSize=1;arcSize=14;strokeWidth=2;" vertex="1" parent="1">
          <mxGeometry x="290" y="480" width="100" height="40" as="geometry" />
        </mxCell>
        <mxCell id="sQZkt7OxbiWoOmY9Tt8w-6" value="&lt;b&gt;Manual&lt;/b&gt;" style="shape=process;whiteSpace=wrap;html=1;backgroundOutline=1;" vertex="1" parent="1">
          <mxGeometry x="200" y="420" width="120" height="60" as="geometry" />
        </mxCell>
        <mxCell id="sQZkt7OxbiWoOmY9Tt8w-7" value="&lt;div&gt;&lt;b&gt;Update&lt;/b&gt;&lt;/div&gt;&lt;div&gt;kode = 0&lt;br&gt;&lt;/div&gt;" style="rounded=1;whiteSpace=wrap;html=1;absoluteArcSize=1;arcSize=14;strokeWidth=2;" vertex="1" parent="1">
          <mxGeometry x="160" y="530" width="100" height="40" as="geometry" />
        </mxCell>
      </root>
    </mxGraphModel>
  </diagram>
</mxfile>
